<svg width="49" height="44" viewBox="0 0 49 44" fill="none" xmlns="http://www.w3.org/2000/svg">
<g id="SVGRepo_iconCarrier">
<path id="Vector" d="M7.32829 34.5622V19.7959" stroke="#FF7F33" stroke-width="2" stroke-miterlimit="10" stroke-linecap="round" stroke-linejoin="round"/>
<path id="Vector_2" d="M15.7664 34.5622V19.7959" stroke="#FF7F33" stroke-width="2" stroke-miterlimit="10" stroke-linecap="round" stroke-linejoin="round"/>
<path id="Vector_3" d="M24.2041 34.5622V19.7959" stroke="#FF7F33" stroke-width="2" stroke-miterlimit="10" stroke-linecap="round" stroke-linejoin="round"/>
<path id="Vector_4" d="M32.6423 34.5622V19.7959" stroke="#FF7F33" stroke-width="2" stroke-miterlimit="10" stroke-linecap="round" stroke-linejoin="round"/>
<path id="Vector_5" d="M41.08 34.5622V19.7959" stroke="#FF7F33" stroke-width="2" stroke-miterlimit="10" stroke-linecap="round" stroke-linejoin="round"/>
<path id="Vector_6" d="M45.2989 42.9999H3.10938V36.6715C3.10938 35.5113 4.05864 34.562 5.21885 34.562H43.1894C44.3496 34.562 45.2989 35.5113 45.2989 36.6715V42.9999Z" stroke="#000066" stroke-width="2" stroke-miterlimit="10" stroke-linecap="round" stroke-linejoin="round"/>
<path id="Vector_7" d="M1 43H47.4085" stroke="#000066" stroke-width="1.869" stroke-miterlimit="10" stroke-linecap="round" stroke-linejoin="round"/>
<path id="Vector_8" d="M24.9846 1.12657L43.9699 8.72064C44.7082 9.01597 45.2989 9.90192 45.2989 10.6824V17.6859C45.2989 18.8461 44.3496 19.7953 43.1894 19.7953H5.21885C4.05864 19.7953 3.10938 18.8461 3.10938 17.6859V10.6824C3.10938 9.90192 3.70003 9.01597 4.43834 8.72064L23.4236 1.12657C23.8455 0.95781 24.5627 0.95781 24.9846 1.12657Z" stroke="#000066" stroke-width="2" stroke-miterlimit="10" stroke-linecap="round" stroke-linejoin="round"/>
<path id="Vector_9" d="M24.2044 14.5223C25.9519 14.5223 27.3686 13.1056 27.3686 11.3581C27.3686 9.61051 25.9519 8.19385 24.2044 8.19385C22.4569 8.19385 21.0402 9.61051 21.0402 11.3581C21.0402 13.1056 22.4569 14.5223 24.2044 14.5223Z" stroke="#FF7F33" stroke-width="2" stroke-miterlimit="10" stroke-linecap="round" stroke-linejoin="round"/>
</g>
</svg>
