<svg width="49" height="44" viewBox="0 0 49 44" fill="none" xmlns="http://www.w3.org/2000/svg">
<g id="SVGRepo_iconCarrier">
<g id="Group">
<g id="Group_2">
<g id="Vector">
<path d="M48.2263 8.08909C47.7662 7.56454 47.1092 7.27665 46.3807 7.27665H28.5564L28.816 2.75612C28.816 1.23632 27.5797 0 26.0599 0H2.75612C1.23632 0 0 1.23632 0 2.77731L0.883088 40.6839C0.883088 42.2037 2.11941 43.44 3.63921 43.44H5.21905C6.62316 43.44 7.68198 41.8522 7.68198 39.746V36.9369C7.68198 35.8746 8.54652 35.01 9.60888 35.01H10.4284C11.4907 35.01 12.3553 35.8746 12.3553 36.9369V39.7452C12.3553 40.7325 12.7385 41.6597 13.4353 42.3573C14.1329 43.055 15.0602 43.44 16.0466 43.44H35.2449C35.2511 43.44 35.2564 43.4382 35.2626 43.4382H41.9661C43.3923 43.4382 44.6516 42.3308 44.8335 40.917L48.7986 10.0248C48.8904 9.30069 48.6873 8.61364 48.2263 8.08909ZM14.6849 41.1095C14.321 40.7457 14.1215 40.2618 14.1215 39.746V36.9369C14.1215 34.9005 12.4648 33.2439 10.4284 33.2439H9.60888C7.57248 33.2439 5.91581 34.9005 5.91581 36.9369V39.746C5.91581 40.9894 5.39213 41.6738 5.21905 41.6738H3.63921C3.09346 41.6738 2.64926 41.2296 2.64838 40.6627L1.76529 2.75612C1.76529 2.21037 2.20949 1.76618 2.75523 1.76618H26.059C26.6048 1.76618 27.049 2.21037 27.0507 2.7049L26.1659 18.091C26.1659 19.6107 27.4022 20.8471 28.922 20.8471H36.1262C36.6711 20.8471 37.1144 21.2904 37.1153 21.7946L36.2313 40.6839C36.2313 41.227 35.7924 41.6668 35.252 41.6721H30.705C30.7023 41.6721 30.6997 41.6738 30.6961 41.6738H16.0457C15.5318 41.6738 15.0478 41.4734 14.6849 41.1095ZM43.0806 40.6918C43.0143 41.2137 42.4924 41.6712 41.9652 41.6712H37.8138C37.9286 41.3745 37.9984 41.0574 37.9984 40.7245L38.8824 21.8352C38.8824 20.3163 37.6469 19.08 36.128 19.08H28.9238C28.378 19.08 27.9338 18.6358 27.9321 18.1413L28.4557 9.04194H46.3815C46.5953 9.04194 46.7798 9.11789 46.9017 9.25565C47.0227 9.39341 47.0739 9.58593 47.0465 9.79875L43.0806 40.6918Z" fill="#FF7F33"/>
<path d="M43.0806 40.6918C43.0143 41.2137 42.4924 41.6712 41.9652 41.6712H37.8138C37.9286 41.3745 37.9984 41.0574 37.9984 40.7245L38.8824 21.8352C38.8824 20.3163 37.6469 19.08 36.128 19.08H28.9238C28.378 19.08 27.9338 18.6358 27.9321 18.1413L28.4557 9.04194H46.3815C46.5953 9.04194 46.7798 9.11789 46.9017 9.25565C47.0227 9.39341 47.0739 9.58593 47.0465 9.79875L43.0806 40.6918Z" fill="#000066"/>
<path d="M14.6849 41.1095C14.321 40.7457 14.1215 40.2618 14.1215 39.746V36.9369C14.1215 34.9005 12.4648 33.2439 10.4284 33.2439H9.60888C7.57248 33.2439 5.91581 34.9005 5.91581 36.9369V39.746C5.91581 40.9894 5.39213 41.6738 5.21905 41.6738H3.63921C3.09346 41.6738 2.64926 41.2296 2.64838 40.6627L1.76529 2.75612C1.76529 2.21037 2.20949 1.76618 2.75523 1.76618H26.059C26.6048 1.76618 27.049 2.21037 27.0507 2.7049L26.1659 18.091C26.1659 19.6107 27.4022 20.8471 28.922 20.8471H36.1262C36.6711 20.8471 37.1144 21.2904 37.1153 21.7946L36.2313 40.6839C36.2313 41.227 35.7924 41.6668 35.252 41.6721H30.705C30.7023 41.6721 30.6997 41.6738 30.6961 41.6738H16.0457C15.5318 41.6738 15.0478 41.4734 14.6849 41.1095Z" fill="#000066"/>
</g>
<g id="Vector_2">
<path d="M12.182 13.9424H7.73391C6.97357 13.9424 6.35541 14.5605 6.35541 15.3209V20.003C6.35541 20.7625 6.97357 21.3806 7.73391 21.3806H12.182C12.9424 21.3806 13.5605 20.7625 13.5605 20.003V15.3209C13.5605 14.5605 12.9424 13.9424 12.182 13.9424ZM12.6774 20.003C12.6774 20.2759 12.4558 20.4975 12.182 20.4975H7.73391C7.46015 20.4975 7.2385 20.2759 7.2385 20.003V15.3209C7.2385 15.0471 7.46015 14.8255 7.73391 14.8255H12.182C12.4558 14.8255 12.6774 15.0471 12.6774 15.3209V20.003Z" fill="#FF7F33"/>
<path d="M12.6774 20.003C12.6774 20.2759 12.4558 20.4975 12.182 20.4975H7.73391C7.46015 20.4975 7.2385 20.2759 7.2385 20.003V15.3209C7.2385 15.0471 7.46015 14.8255 7.73391 14.8255H12.182C12.4558 14.8255 12.6774 15.0471 12.6774 15.3209V20.003Z" fill="#FFECDB"/>
</g>
<g id="Vector_3">
<path d="M21.8991 13.9424H17.4501C16.6898 13.9424 16.0716 14.5605 16.0716 15.3209V20.003C16.0716 20.7625 16.6898 21.3806 17.4501 21.3806H21.8991C22.6586 21.3806 23.2767 20.7625 23.2767 20.003V15.3209C23.2767 14.5605 22.6586 13.9424 21.8991 13.9424ZM22.3937 20.003C22.3937 20.2759 22.172 20.4975 21.8991 20.4975H17.4501C17.1764 20.4975 16.9547 20.2759 16.9547 20.003V15.3209C16.9547 15.0471 17.1764 14.8255 17.4501 14.8255H21.8991C22.172 14.8255 22.3937 15.0471 22.3937 15.3209V20.003Z" fill="#FF7F33"/>
<path d="M22.3937 20.003C22.3937 20.2759 22.172 20.4975 21.8991 20.4975H17.4501C17.1764 20.4975 16.9547 20.2759 16.9547 20.003V15.3209C16.9547 15.0471 17.1764 14.8255 17.4501 14.8255H21.8991C22.172 14.8255 22.3937 15.0471 22.3937 15.3209V20.003Z" fill="#FFECDB"/>
</g>
<g id="Vector_4">
<path d="M35.0113 9.85059H30.5623C29.8028 9.85059 29.1838 10.4687 29.1838 11.2282V15.9103C29.1838 16.6707 29.8019 17.2888 30.5623 17.2888H35.0113C35.7707 17.2888 36.3889 16.6707 36.3889 15.9103V11.2282C36.388 10.4687 35.7707 9.85059 35.0113 9.85059ZM35.5049 15.9103C35.5049 16.1841 35.2833 16.4057 35.0104 16.4057H30.5614C30.2876 16.4057 30.066 16.1841 30.066 15.9103V11.2282C30.066 10.9553 30.2876 10.7337 30.5614 10.7337H35.0104C35.2833 10.7337 35.5049 10.9553 35.5049 11.2282V15.9103Z" fill="#FF7F33"/>
<path d="M35.5049 15.9103C35.5049 16.1841 35.2833 16.4057 35.0104 16.4057H30.5614C30.2876 16.4057 30.066 16.1841 30.066 15.9103V11.2282C30.066 10.9553 30.2876 10.7337 30.5614 10.7337H35.0104C35.2833 10.7337 35.5049 10.9553 35.5049 11.2282V15.9103Z" fill="#FFECDB"/>
</g>
<g id="Vector_5">
<path d="M44.2636 9.85059H39.8137C39.0542 9.85059 38.4352 10.4687 38.4352 11.2282V15.9103C38.4352 16.6707 39.0534 17.2888 39.8137 17.2888H44.2636C45.023 17.2888 45.6412 16.6707 45.6412 15.9103V11.2282C45.6412 10.4687 45.0239 9.85059 44.2636 9.85059ZM44.7581 15.9103C44.7581 16.1841 44.5365 16.4057 44.2636 16.4057H39.8137C39.5399 16.4057 39.3183 16.1841 39.3183 15.9103V11.2282C39.3183 10.9553 39.5399 10.7337 39.8137 10.7337H44.2636C44.5365 10.7337 44.7581 10.9553 44.7581 11.2282V15.9103Z" fill="#FF7F33"/>
<path d="M44.7581 15.9103C44.7581 16.1841 44.5365 16.4057 44.2636 16.4057H39.8137C39.5399 16.4057 39.3183 16.1841 39.3183 15.9103V11.2282C39.3183 10.9553 39.5399 10.7337 39.8137 10.7337H44.2636C44.5365 10.7337 44.7581 10.9553 44.7581 11.2282V15.9103Z" fill="#FFECDB"/>
</g>
<g id="Vector_6">
<path d="M12.182 23.2671H7.73391C6.97357 23.2671 6.35541 23.8853 6.35541 24.6456V29.3295C6.35541 30.0889 6.97357 30.708 7.73391 30.708H12.182C12.9424 30.708 13.5605 30.0898 13.5605 29.3295V24.6456C13.5605 23.8853 12.9424 23.2671 12.182 23.2671ZM12.6774 29.3286C12.6774 29.6024 12.4558 29.824 12.182 29.824H7.73391C7.46015 29.824 7.2385 29.6024 7.2385 29.3286V24.6447C7.2385 24.3709 7.46015 24.1493 7.73391 24.1493H12.182C12.4558 24.1493 12.6774 24.3709 12.6774 24.6447V29.3286Z" fill="#FF7F33"/>
<path d="M12.6774 29.3286C12.6774 29.6024 12.4558 29.824 12.182 29.824H7.73391C7.46015 29.824 7.2385 29.6024 7.2385 29.3286V24.6447C7.2385 24.3709 7.46015 24.1493 7.73391 24.1493H12.182C12.4558 24.1493 12.6774 24.3709 12.6774 24.6447V29.3286Z" fill="#FFECDB"/>
</g>
<g id="Vector_7">
<path d="M21.8991 23.2671H17.4501C16.6898 23.2671 16.0716 23.8853 16.0716 24.6456V29.3295C16.0716 30.0889 16.6898 30.708 17.4501 30.708H21.8991C22.6586 30.708 23.2767 30.0898 23.2767 29.3295V24.6456C23.2767 23.8853 22.6586 23.2671 21.8991 23.2671ZM22.3937 29.3286C22.3937 29.6024 22.172 29.824 21.8991 29.824H17.4501C17.1764 29.824 16.9547 29.6024 16.9547 29.3286V24.6447C16.9547 24.3709 17.1764 24.1493 17.4501 24.1493H21.8991C22.172 24.1493 22.3937 24.3709 22.3937 24.6447V29.3286Z" fill="#FF7F33"/>
<path d="M22.3937 29.3286C22.3937 29.6024 22.172 29.824 21.8991 29.824H17.4501C17.1764 29.824 16.9547 29.6024 16.9547 29.3286V24.6447C16.9547 24.3709 17.1764 24.1493 17.4501 24.1493H21.8991C22.172 24.1493 22.3937 24.3709 22.3937 24.6447V29.3286Z" fill="#FFECDB"/>
</g>
<g id="Vector_8">
<path d="M27.4026 30.707H31.8499C32.6076 30.707 33.2266 30.0897 33.2293 29.3285V24.6446C33.2293 23.8852 32.6111 23.2661 31.8499 23.2661H27.4026C26.6423 23.2661 26.0233 23.8843 26.0233 24.6446V29.3285C26.0233 30.0889 26.6414 30.707 27.4026 30.707ZM26.9063 24.6446C26.9063 24.3709 27.1289 24.1492 27.4026 24.1492H31.8499C32.1236 24.1492 32.3462 24.3709 32.3462 24.6446V29.3267C32.3453 29.6014 32.1227 29.823 31.8499 29.823H27.4026C27.1289 29.823 26.9063 29.6014 26.9063 29.3276V24.6446Z" fill="#FF7F33"/>
<path d="M26.9063 24.6446C26.9063 24.3709 27.1289 24.1492 27.4026 24.1492H31.8499C32.1236 24.1492 32.3462 24.3709 32.3462 24.6446V29.3267C32.3453 29.6014 32.1227 29.823 31.8499 29.823H27.4026C27.1289 29.823 26.9063 29.6014 26.9063 29.3276V24.6446Z" fill="#FFECDB"/>
</g>
<g id="Vector_9">
<path d="M31.8499 40.2831C32.6076 40.2831 33.2266 39.6649 33.2293 38.9037V34.2207C33.2293 33.4604 32.6111 32.8413 31.8499 32.8413H27.4026C26.6423 32.8413 26.0233 33.4595 26.0233 34.2207V38.9037C26.0233 39.664 26.6414 40.2831 27.4026 40.2831H31.8499ZM26.9063 38.9046V34.2216C26.9063 33.9478 27.1289 33.7253 27.4026 33.7253H31.8499C32.1236 33.7253 32.3462 33.9478 32.3462 34.2216V38.9028C32.3453 39.1775 32.1227 39.4 31.8499 39.4H27.4026C27.1289 39.4 26.9063 39.1783 26.9063 38.9046Z" fill="#FF7F33"/>
<path d="M26.9063 38.9046V34.2216C26.9063 33.9478 27.1289 33.7253 27.4026 33.7253H31.8499C32.1236 33.7253 32.3462 33.9478 32.3462 34.2216V38.9028C32.3453 39.1775 32.1227 39.4 31.8499 39.4H27.4026C27.1289 39.4 26.9063 39.1783 26.9063 38.9046Z" fill="#FFECDB"/>
</g>
<g id="Vector_10">
<path d="M21.8275 33H17.3785C16.6182 33 16 33.6182 16 34.3794V39.0624C16 39.8227 16.6182 40.4418 17.3785 40.4418H21.8275C22.587 40.4418 23.2051 39.8236 23.2051 39.0624V34.3794C23.2051 33.6182 22.587 33 21.8275 33ZM22.322 39.0615C22.322 39.3353 22.1004 39.5578 21.8275 39.5578H17.3785C17.1047 39.5578 16.8831 39.3353 16.8831 39.0615V34.3785C16.8831 34.1047 17.1047 33.8822 17.3785 33.8822H21.8275C22.1004 33.8822 22.322 34.1047 22.322 34.3785V39.0615Z" fill="#FF7F33"/>
<path d="M22.322 39.0615C22.322 39.3353 22.1004 39.5578 21.8275 39.5578H17.3785C17.1047 39.5578 16.8831 39.3353 16.8831 39.0615V34.3785C16.8831 34.1047 17.1047 33.8822 17.3785 33.8822H21.8275C22.1004 33.8822 22.322 34.1047 22.322 34.3785V39.0615Z" fill="#FFECDB"/>
</g>
<path id="Vector_11" d="M6.51623 9.73272C6.55243 9.65324 6.55773 9.56935 6.53212 9.47839L6.53919 9.49693C6.53565 9.46338 6.53212 9.42452 6.53212 9.38125C6.53212 9.33886 6.53035 9.30001 6.52506 9.26557C6.51711 9.16666 6.51093 9.06687 6.50651 8.96532C6.5021 8.86464 6.49945 8.76044 6.49945 8.6527C6.49945 8.62621 6.49856 8.59619 6.49591 8.56174C6.49503 8.5273 6.49327 8.4911 6.49327 8.45224V8.19438C6.67342 8.1776 6.84032 8.167 6.98956 8.16259C7.1388 8.15817 7.29423 8.15641 7.45318 8.15641C7.52648 8.15641 7.59624 8.15729 7.66512 8.15994C7.734 8.16171 7.80465 8.16259 7.87883 8.16259H8.27181V8.18202C8.27181 8.20233 8.27004 8.22617 8.26827 8.25266C8.26562 8.27827 8.26474 8.30212 8.26474 8.32331C8.27357 8.65888 8.28152 8.94059 8.29388 9.16843C8.3036 9.39715 8.32302 9.57906 8.35128 9.71682C8.37954 9.85458 8.41751 9.95349 8.46785 10.0135C8.51554 10.0736 8.58619 10.1036 8.67714 10.1036C8.68156 10.1036 8.69039 10.1045 8.7054 10.1071C8.7213 10.108 8.73454 10.1098 8.74867 10.1098C8.79459 10.1186 8.8414 10.1204 8.88643 10.1169C8.93147 10.1116 8.96238 10.093 8.98004 10.0586C9.07806 10.0065 9.14253 9.93936 9.16991 9.85812C9.19905 9.77599 9.21229 9.68591 9.21229 9.58701C9.21229 9.54021 9.20965 9.49605 9.20611 9.45543C9.20081 9.41481 9.19728 9.37683 9.19287 9.34239C9.16637 9.21346 9.1496 9.07217 9.13811 8.91939C9.1284 8.7675 9.12134 8.59972 9.12134 8.41957V8.07781C9.12134 7.58417 9.12752 7.19473 9.14165 6.91037C9.15401 6.62602 9.16726 6.41408 9.18315 6.2719C9.19905 6.1306 9.21141 6.0423 9.22554 6.00786C9.23879 5.97342 9.24497 5.95399 9.24497 5.94957L9.25998 5.90542C9.26881 5.81887 9.24938 5.75088 9.2017 5.69877C9.15401 5.64756 9.09926 5.61312 9.04098 5.59545C8.98799 5.57426 8.92706 5.56455 8.85376 5.5672C8.78046 5.56896 8.71865 5.58132 8.66655 5.60252C8.56764 5.62371 8.49434 5.65639 8.44401 5.69877C8.39456 5.74205 8.36011 5.78973 8.34069 5.8436C8.32214 5.89747 8.31243 5.95575 8.31596 6.01845C8.31596 6.08027 8.32214 6.14209 8.33097 6.20214C8.33892 6.23658 8.3451 6.25777 8.34775 6.2666C8.34952 6.27455 8.34775 6.29044 8.34422 6.31164C8.34422 6.5227 8.33892 6.71609 8.32832 6.89271C8.31596 7.06844 8.30625 7.22475 8.29918 7.36251V7.39519H7.62097C7.41963 7.39519 7.22446 7.39784 7.0346 7.40137C6.84473 7.40578 6.66458 7.41461 6.49327 7.42786C6.49327 7.39254 6.49503 7.36339 6.49591 7.34043C6.49856 7.31659 6.49945 7.2954 6.49945 7.27862C6.49945 7.25742 6.50033 7.23535 6.5021 7.2115C6.50563 7.18766 6.50651 7.15852 6.50651 7.12408C6.51446 6.92627 6.52417 6.7364 6.53477 6.5536C6.54625 6.3708 6.55685 6.21097 6.57098 6.0732C6.57451 6.05996 6.57628 6.03523 6.57451 5.99902C6.57098 5.96282 6.56833 5.92573 6.5648 5.88952C6.5595 5.85332 6.55508 5.81976 6.55155 5.78973C6.54625 5.75971 6.54448 5.74205 6.54448 5.73763C6.53124 5.71644 6.51004 5.69171 6.4809 5.66433C6.44999 5.63519 6.41202 5.61135 6.36698 5.5928C6.32195 5.57338 6.26808 5.56101 6.20626 5.5566C6.14268 5.5513 6.0738 5.56101 5.99609 5.58221C5.85744 5.62106 5.7709 5.69524 5.73204 5.80475C5.6923 5.91425 5.67376 6.03611 5.67376 6.16946C5.67376 6.2039 5.67464 6.23569 5.67729 6.26572C5.67906 6.29663 5.68082 6.32842 5.68082 6.36286C5.68436 6.38493 5.68789 6.41937 5.68789 6.46618C5.68789 6.51298 5.68789 6.54831 5.68789 6.5695C5.67376 6.80175 5.66404 7.03135 5.65521 7.26007C5.64638 7.48791 5.64197 7.72458 5.64197 7.96919V8.45931C5.64197 8.59707 5.64285 8.73306 5.64462 8.86553C5.64638 8.99976 5.6508 9.12604 5.65521 9.24614C5.65875 9.36624 5.66493 9.47839 5.67111 9.58171C5.67817 9.68415 5.68789 9.77246 5.70113 9.84575C5.7135 9.927 5.74882 9.99411 5.80711 10.0453C5.86539 10.0965 5.93692 10.123 6.02258 10.123C6.05614 10.123 6.10736 10.1063 6.17447 10.0745C6.24159 10.0427 6.30605 9.99676 6.36787 9.93936C6.42968 9.88196 6.48002 9.8122 6.51623 9.73272Z" fill="#FF7F33"/>
<path id="Vector_12" d="M10.1626 9.5181C10.3331 9.71415 10.5318 9.8678 10.7622 9.97995C10.9927 10.0912 11.2409 10.1469 11.5067 10.1469C11.791 10.1469 12.0542 10.0842 12.2979 9.95964C12.5399 9.83513 12.7518 9.66558 12.9355 9.4501C13.1174 9.23551 13.264 8.98118 13.3709 8.68623C13.4786 8.39216 13.536 8.07513 13.5449 7.73515L13.5387 7.76076C13.5431 7.73956 13.5422 7.68658 13.5351 7.60268C13.5298 7.51879 13.5184 7.42342 13.5034 7.31568C13.4883 7.20794 13.4698 7.09579 13.446 6.98011C13.4212 6.86442 13.3956 6.76375 13.3647 6.67721C13.3002 6.50059 13.2111 6.34075 13.0936 6.19681C12.9779 6.05286 12.8455 5.93012 12.6953 5.82944C12.5443 5.72789 12.3792 5.64929 12.2017 5.59366C12.0224 5.53802 11.8343 5.50977 11.6356 5.50977C11.3557 5.50977 11.0952 5.57423 10.8523 5.70051C10.6095 5.82768 10.3958 6.00076 10.2112 6.22242C10.0266 6.44496 9.88093 6.70458 9.77672 7.00307C9.66987 7.30243 9.61777 7.62299 9.61777 7.9674C9.61777 8.27295 9.66634 8.55907 9.76259 8.82488C9.85885 9.09157 9.99308 9.32205 10.1626 9.5181ZM10.4938 7.20971C10.5512 7.01455 10.6307 6.84588 10.734 6.70635C10.8373 6.56682 10.9601 6.45732 11.1005 6.37784C11.2435 6.29836 11.4025 6.25862 11.5791 6.25862C11.814 6.25862 12.0206 6.30719 12.1964 6.40345C12.3739 6.50059 12.5143 6.68427 12.6176 6.95538C12.6468 7.03662 12.6697 7.14083 12.6883 7.26799C12.7042 7.39516 12.7183 7.52674 12.7262 7.66362C12.7351 7.9047 12.713 8.12812 12.6627 8.33476C12.6106 8.54052 12.5328 8.72067 12.4295 8.87256C12.3262 9.02534 12.2017 9.14455 12.0551 9.23021C11.9085 9.31676 11.7451 9.35914 11.565 9.35914C11.3892 9.35914 11.2294 9.32029 11.0872 9.24081C10.9459 9.16133 10.8249 9.0536 10.7269 8.91848C10.628 8.78249 10.5503 8.62442 10.4938 8.44073C10.4382 8.25793 10.4108 8.06189 10.4108 7.85083C10.4108 7.61858 10.439 7.40487 10.4938 7.20971Z" fill="#FF7F33"/>
<path id="Vector_13" d="M16.123 9.37966V9.38585C16.1044 9.27016 16.0912 9.13946 16.0806 8.99287C16.0709 8.84716 16.0629 8.69792 16.0585 8.54868C16.0541 8.39767 16.0532 8.25196 16.0532 8.10978C16.0532 7.96319 16.0532 7.82984 16.0532 7.70974C16.0532 7.57993 16.0541 7.451 16.0585 7.31942C16.0629 7.18872 16.0673 7.06067 16.0718 6.93616C16.0762 6.87169 16.0779 6.80723 16.0779 6.74276C16.0779 6.67388 16.0797 6.60765 16.085 6.5423V6.46547C16.0771 6.41425 16.0841 6.38158 16.1053 6.36922H16.304C16.3385 6.36922 16.3747 6.3701 16.4126 6.37187C16.4524 6.37451 16.4912 6.3754 16.5301 6.3754C16.6369 6.3754 16.7456 6.36922 16.8559 6.35597C16.9663 6.34361 17.0626 6.31711 17.1527 6.27914C17.2401 6.24029 17.3134 6.18642 17.3708 6.11754C17.4291 6.04866 17.4591 5.95593 17.4591 5.83936C17.4635 5.72721 17.4211 5.65038 17.3328 5.60976C17.2454 5.56914 17.1412 5.54883 17.0202 5.54883C16.9566 5.54883 16.8966 5.55059 16.8427 5.55501C16.7888 5.55943 16.7385 5.56561 16.6908 5.57444H16.6979C16.6723 5.57885 16.6493 5.58239 16.6308 5.58415C16.6113 5.5868 16.5945 5.58768 16.5822 5.58768C16.4753 5.5921 16.3614 5.59563 16.2431 5.5974C16.1247 5.59916 16.0144 5.60535 15.9102 5.61418C15.7309 5.62212 15.5534 5.63095 15.3812 5.6389C15.209 5.64773 15.0332 5.65215 14.8531 5.65215C14.8019 5.65215 14.7427 5.64508 14.6791 5.63184C14.627 5.62389 14.5758 5.61594 14.5246 5.60976C14.4716 5.60358 14.4222 5.60446 14.37 5.61329C14.3268 5.62124 14.2764 5.6442 14.2199 5.68041C14.1643 5.7175 14.1122 5.76077 14.0627 5.80934C14.0124 5.85967 13.9727 5.91443 13.94 5.97448C13.9073 6.03453 13.8949 6.09016 13.9047 6.14226C13.9179 6.21114 13.94 6.26325 13.9753 6.30034C14.0089 6.33654 14.0504 6.36392 14.0989 6.3807C14.1457 6.39836 14.1952 6.40807 14.2464 6.40984C14.2968 6.41249 14.3453 6.41337 14.3886 6.41337C14.5255 6.41337 14.6588 6.4116 14.7904 6.40984C14.9211 6.40807 15.0518 6.40366 15.1807 6.40012C15.2072 6.40012 15.2222 6.40719 15.2266 6.41955C15.2302 6.43368 15.2302 6.45046 15.2266 6.47165V6.51051C15.2266 6.56615 15.2249 6.62001 15.2231 6.67123C15.2205 6.72245 15.2178 6.77632 15.2125 6.83284C15.201 7.17636 15.194 7.51635 15.194 7.85104V8.18661C15.194 8.24666 15.1922 8.31024 15.1904 8.37648C15.1887 8.44359 15.1869 8.51071 15.1869 8.57959C15.1869 8.79418 15.194 9.00523 15.2072 9.21188C15.2205 9.41764 15.2443 9.60309 15.2779 9.76646C15.2955 9.84417 15.3273 9.91393 15.375 9.97575C15.4218 10.0384 15.4969 10.0694 15.6011 10.0694C15.677 10.0694 15.753 10.0437 15.8271 9.99253C15.8996 9.94043 15.9596 9.89186 16.0073 9.84417C16.0921 9.75851 16.1389 9.68345 16.1451 9.62163C16.1512 9.55981 16.1442 9.47857 16.123 9.37966Z" fill="#FF7F33"/>
<path id="Vector_14" d="M20.9485 9.44336L20.9506 9.46398L20.9609 9.48254L20.9485 9.44336Z" fill="#000066"/>
<path id="Vector_15" d="M17.9036 6.26005C17.9381 6.29979 17.9707 6.34659 17.9999 6.40222C18.0299 6.45786 18.0431 6.53381 18.0396 6.62741C18.0396 6.70071 18.0343 6.78107 18.0255 6.86673C18.0175 6.95239 18.0087 7.04246 17.9999 7.13696C17.9928 7.24822 17.9831 7.35949 17.9743 7.469C17.9672 7.5785 17.9619 7.69153 17.9619 7.80722V7.92997C17.9619 7.95205 17.9628 7.97147 17.9654 7.98825C17.9672 8.00503 17.9672 8.02446 17.9672 8.04565V8.26466C17.9672 8.55343 17.9725 8.79981 17.9804 9.00292C17.9884 9.2078 18.0087 9.37912 18.0396 9.516C18.0688 9.65376 18.1138 9.76326 18.1738 9.8445C18.2339 9.92575 18.3151 9.98668 18.4185 10.0282C18.5218 10.0688 18.6507 10.0953 18.8061 10.1085C18.9598 10.1218 19.1452 10.128 19.3598 10.128C19.6221 10.128 19.8588 10.1138 20.0698 10.0856C20.28 10.0582 20.4566 10.0167 20.5988 9.96019C20.7401 9.90455 20.8425 9.83302 20.9052 9.74736C20.9662 9.66347 20.9776 9.56457 20.9485 9.4533C20.9308 9.38 20.9008 9.32083 20.8514 9.27756C20.7993 9.23164 20.7251 9.20956 20.6324 9.20956C20.6015 9.20956 20.5688 9.2131 20.5352 9.22193L20.5485 9.21575C20.3286 9.26697 20.1175 9.30317 19.9135 9.32437C19.7087 9.34644 19.5047 9.35969 19.3042 9.36322C19.2009 9.36322 19.1134 9.35881 19.0428 9.34821C18.9722 9.33761 18.9183 9.31907 18.8847 9.29346C18.8662 9.2078 18.8529 9.0771 18.8423 8.90048C18.8317 8.72475 18.8264 8.5393 18.8264 8.3459C18.8264 8.32029 18.8264 8.2885 18.8264 8.24965C18.8264 8.21167 18.8282 8.18077 18.8317 8.15957C18.8936 8.1163 18.9978 8.09069 19.1444 8.08186C19.2945 8.07303 19.4958 8.06243 19.7546 8.04919C19.8279 8.04565 19.8994 8.04035 19.97 8.03417C20.0416 8.02711 20.1096 8.01298 20.1732 7.99178H20.2835C20.3939 7.95293 20.4858 7.892 20.5564 7.8081C20.6297 7.72333 20.6606 7.63943 20.6509 7.55289C20.6421 7.47076 20.6068 7.40541 20.5449 7.35596C20.4831 7.30739 20.3895 7.28178 20.2641 7.28178C20.1749 7.28178 20.0557 7.28708 19.9073 7.29503C19.759 7.30386 19.6044 7.31622 19.4402 7.33388C19.3325 7.34271 19.2291 7.35155 19.1302 7.35949C19.0313 7.36921 18.9404 7.37715 18.8529 7.38599C18.8406 7.32505 18.8317 7.26235 18.8282 7.19524C18.8229 7.12901 18.8211 7.06189 18.8211 6.99213C18.8211 6.87115 18.8282 6.75369 18.8406 6.63978C18.8538 6.52674 18.8644 6.43932 18.8732 6.37927C18.9148 6.35807 18.9695 6.34129 19.0375 6.3307C19.1037 6.3201 19.1726 6.31127 19.2468 6.30509C19.3192 6.29802 19.3934 6.2936 19.4693 6.29184C19.5444 6.28919 19.6142 6.28831 19.6777 6.28831H19.8711C19.8932 6.28831 19.9179 6.28919 19.9427 6.29184C19.9683 6.2936 19.9921 6.29449 20.0133 6.29449C20.1211 6.29979 20.2261 6.29714 20.3259 6.28831C20.4266 6.27948 20.507 6.2521 20.567 6.20441C20.6368 6.16556 20.6889 6.11081 20.726 6.03928C20.7613 5.96951 20.7745 5.90593 20.7666 5.84676C20.7533 5.70635 20.6747 5.61628 20.5317 5.5783C20.3877 5.53945 20.1811 5.52002 19.91 5.52002H19.7925C19.668 5.52002 19.5435 5.52355 19.4155 5.52973C19.2892 5.53591 19.1656 5.54475 19.0455 5.55534C18.9245 5.56594 18.8088 5.5783 18.7002 5.5942C18.5898 5.60833 18.4953 5.62511 18.4132 5.64189C18.3054 5.65866 18.233 5.67191 18.1933 5.67986C18.1588 5.68869 18.1385 5.6931 18.1297 5.6931C18.0688 5.70194 18.0175 5.71253 17.9743 5.72578C17.931 5.73903 17.8983 5.75669 17.8718 5.78053C17.8471 5.80437 17.8268 5.83705 17.8144 5.88032C17.8012 5.92359 17.7968 5.97923 17.8012 6.04811C17.8091 6.08608 17.8224 6.12317 17.84 6.15761C17.8559 6.19117 17.878 6.22561 17.9036 6.26005Z" fill="#FF7F33"/>
<path id="Vector_16" d="M20.7703 5.84277L20.7682 5.85102L20.7703 5.85721V5.84277Z" fill="#000066"/>
<path id="Vector_17" d="M24.0287 9.35205C23.9713 9.29642 23.898 9.26816 23.8124 9.26816H23.8062C23.785 9.26021 23.7647 9.25403 23.7479 9.25226C23.7311 9.24961 23.7099 9.25315 23.6843 9.26198H23.6967C23.4998 9.28759 23.3338 9.30348 23.2031 9.30702C23.0724 9.31231 22.9514 9.31673 22.8392 9.32026C22.8048 9.32026 22.7686 9.32203 22.7297 9.32379C22.6909 9.32644 22.6547 9.32733 22.6202 9.32733C22.4401 9.34057 22.2979 9.32026 22.1946 9.26904C22.1857 9.17897 22.1804 9.08536 22.1787 8.98822C22.176 8.89196 22.1751 8.77893 22.1751 8.65V8.3471C22.1751 8.16606 22.1778 7.97973 22.1822 7.78899C22.1849 7.59736 22.1919 7.40661 22.2007 7.21498C22.2096 7.02423 22.2193 6.8379 22.2299 6.65775C22.2405 6.4776 22.2537 6.30716 22.2714 6.14821C22.2714 6.11818 22.2767 6.08197 22.2838 6.0387C22.2891 6.01751 22.2926 5.9972 22.2944 5.97777C22.297 5.95834 22.2979 5.93803 22.2979 5.91684L22.2908 5.93008C22.2908 5.90094 22.2732 5.86209 22.2387 5.8144C22.2052 5.76671 22.1575 5.72344 22.0983 5.68547C22.0374 5.64661 21.9685 5.61659 21.889 5.59451C21.8087 5.57331 21.7292 5.57331 21.6462 5.59451C21.625 5.60776 21.5985 5.62453 21.5658 5.64308C21.534 5.66339 21.5022 5.68723 21.474 5.71726C21.4431 5.74728 21.4174 5.78349 21.3963 5.82411C21.3742 5.86473 21.3636 5.91154 21.3636 5.96276C21.3636 5.9972 21.3627 6.03075 21.36 6.06343C21.3583 6.09522 21.3565 6.12878 21.3565 6.16322C21.353 6.31776 21.3477 6.48908 21.3406 6.67541C21.3336 6.86174 21.3291 7.05161 21.3238 7.24324C21.3194 7.43398 21.315 7.61767 21.3106 7.79428C21.3071 7.9709 21.3035 8.12368 21.3035 8.25261C21.3035 8.30383 21.3026 8.3524 21.3 8.40008C21.2982 8.44865 21.2982 8.49457 21.2982 8.54226C21.2982 8.61026 21.2965 8.67561 21.2947 8.73566C21.2921 8.79571 21.2903 8.85399 21.2903 8.90963C21.2903 9.08183 21.2973 9.2346 21.3132 9.36795C21.3283 9.5013 21.36 9.61698 21.4095 9.71324C21.4581 9.80949 21.5305 9.88809 21.6223 9.94814C21.7142 10.0082 21.8352 10.0515 21.987 10.0771C22.0471 10.085 22.1133 10.0921 22.1831 10.0991C22.2546 10.1062 22.3323 10.1089 22.4189 10.1089C22.4533 10.1089 22.4886 10.108 22.5257 10.1062C22.5619 10.1036 22.5999 10.1027 22.6379 10.1027C22.8657 10.0947 23.0777 10.0806 23.2737 10.0612C23.4689 10.0417 23.6349 10.0126 23.77 9.97375C23.9051 9.93489 24.0058 9.88102 24.0702 9.81214C24.1312 9.74679 24.1471 9.66202 24.1276 9.55781C24.1188 9.47745 24.0861 9.40769 24.0287 9.35205Z" fill="#FF7F33"/>
<path id="Vector_18" d="M24.1302 9.54102C24.1302 9.55545 24.1282 9.56576 24.1302 9.58226V9.54102Z" fill="#000066"/>
</g>
</g>
</g>
</svg>
