<svg width="43" height="43" viewBox="0 0 43 43" fill="none" xmlns="http://www.w3.org/2000/svg">
<g id="SVGRepo_iconCarrier">
<g id="Group">
<g id="Group_2">
<g id="Group_3">
<path id="Vector" d="M42.1224 19.3061H26.3265V0.877551C26.3265 0.392967 25.9337 0 25.449 0H0.877551C0.39288 0 0 0.392967 0 0.877551V42.1224C0 42.607 0.39288 43 0.877551 43H24.1327C24.6173 43 25.0102 42.607 25.0102 42.1224V39.4898H35.5408V42.1224C35.5408 42.607 35.9337 43 36.4184 43H39.4898C39.9745 43 40.3673 42.607 40.3673 42.1224V39.4898H40.8061C41.2908 39.4898 41.6837 39.0968 41.6837 38.6122V24.1327H42.1224C42.6071 24.1327 43 23.7397 43 23.2551V20.1837C43 19.6991 42.6071 19.3061 42.1224 19.3061ZM12.2857 41.2449H1.7551V33.7857H12.2857V41.2449ZM12.2857 32.0306H1.7551V1.7551H12.2857V32.0306ZM20.1837 41.2449H14.0408V1.7551H24.5714V19.3061H17.9898C17.5051 19.3061 17.1122 19.6991 17.1122 20.1837V23.2551C17.1122 23.7397 17.5051 24.1327 17.9898 24.1327H18.8673V38.6122C18.8673 39.0968 19.2602 39.4898 19.7449 39.4898H20.1837V41.2449ZM23.2551 41.2449H21.9388V39.4898H23.2551V41.2449ZM38.6122 41.2449H37.2959V39.4898H38.6122V41.2449ZM39.9286 37.7347H20.6224V31.5918H39.9286V37.7347ZM39.9286 29.8367H20.6224V24.1327H39.9286V29.8367ZM41.2449 22.3776H18.8673V21.0612H41.2449V22.3776Z" fill="#000066" stroke="#000066" stroke-width="0.000453333"/>
<path id="Vector_2" d="M30.7142 25.8877H29.8367C29.352 25.8877 28.9591 26.2806 28.9591 26.7652C28.9591 27.2499 29.352 27.6428 29.8367 27.6428H30.7142C31.1989 27.6428 31.5918 27.2499 31.5918 26.7652C31.5918 26.2806 31.1989 25.8877 30.7142 25.8877Z" fill="#FF7F33" stroke="#FF7F33" stroke-width="0.000453333"/>
<path id="Vector_3" d="M30.7142 33.3472H29.8367C29.352 33.3472 28.9591 33.7401 28.9591 34.2247C28.9591 34.7094 29.352 35.1023 29.8367 35.1023H30.7142C31.1989 35.1023 31.5918 34.7094 31.5918 34.2247C31.5918 33.7401 31.1989 33.3472 30.7142 33.3472Z" fill="#FF7F33" stroke="#FF7F33" stroke-width="0.000453333"/>
<path id="Vector_4" d="M17.551 16.6737V14.9186C17.551 14.4339 17.1581 14.041 16.6734 14.041C16.1888 14.041 15.7959 14.4339 15.7959 14.9186V16.6737C15.7959 17.1583 16.1888 17.5512 16.6734 17.5512C17.1581 17.5512 17.551 17.1583 17.551 16.6737Z" fill="#FF7F33" stroke="#FF7F33" stroke-width="0.000453333"/>
<path id="Vector_5" d="M10.5306 16.6737V14.9186C10.5306 14.4339 10.1377 14.041 9.65306 14.041C9.16841 14.041 8.77551 14.4339 8.77551 14.9186V16.6737C8.77551 17.1583 9.16841 17.5512 9.65306 17.5512C10.1377 17.5512 10.5306 17.1583 10.5306 16.6737Z" fill="#FF7F33" stroke="#FF7F33" stroke-width="0.000453333"/>
<path id="Vector_6" d="M7.45926 36.4185H6.58171C6.09706 36.4185 5.70416 36.8114 5.70416 37.296C5.70416 37.7807 6.09706 38.1736 6.58171 38.1736H7.45926C7.94392 38.1736 8.33682 37.7807 8.33682 37.296C8.33682 36.8114 7.94392 36.4185 7.45926 36.4185Z" fill="#FF7F33" stroke="#FF7F33" stroke-width="0.000453333"/>
</g>
</g>
</g>
</g>
</svg>
