<svg width="109" height="21" viewBox="0 0 109 21" fill="none" xmlns="http://www.w3.org/2000/svg">
<g id="Group 85">
<g id="Group 67">
<rect id="Rectangle 9" x="0.396484" y="0.203125" width="20" height="20" rx="5" fill="#F7CAFF"/>
<path id="Vector" fill-rule="evenodd" clip-rule="evenodd" d="M9.79561 4.60162C10.0163 4.07029 10.7666 4.07029 10.9873 4.60162L12.1497 7.40054C12.2435 7.62641 12.4635 7.77353 12.7074 7.77353H15.7643C16.3264 7.77353 16.6079 8.45531 16.2104 8.85405L13.738 11.3345C13.5829 11.4901 13.5241 11.7179 13.5843 11.9296L14.5648 15.3724C14.7303 15.9537 14.0842 16.4269 13.5828 16.0915L10.7266 14.1812C10.5236 14.0455 10.2592 14.0454 10.0563 14.1812L7.2048 16.0884C6.70178 16.4248 6.05354 15.9501 6.21963 15.3669L7.19855 11.9296C7.25883 11.7179 7.19999 11.4901 7.04485 11.3345L4.58465 8.8663C4.18269 8.46304 4.46737 7.77353 5.03583 7.77353H8.07549C8.31939 7.77353 8.53936 7.62641 8.63317 7.40054L9.79561 4.60162Z" fill="url(#paint0_linear_2_4399)"/>
</g>
<g id="Group 68">
<rect id="Rectangle 9_2" x="22.3965" y="0.203125" width="20" height="20" rx="5" fill="#FEF4E1"/>
<path id="Vector_2" fill-rule="evenodd" clip-rule="evenodd" d="M31.7956 4.60162C32.0163 4.07029 32.7666 4.07029 32.9873 4.60162L34.1497 7.40054C34.2435 7.62641 34.4635 7.77353 34.7074 7.77353H37.7643C38.3264 7.77353 38.6079 8.45531 38.2104 8.85405L35.738 11.3345C35.5829 11.4901 35.5241 11.7179 35.5843 11.9296L36.5648 15.3724C36.7303 15.9537 36.0842 16.4269 35.5828 16.0915L32.7266 14.1812C32.5236 14.0455 32.2592 14.0454 32.0563 14.1812L29.2048 16.0884C28.7018 16.4248 28.0535 15.9501 28.2196 15.3669L29.1986 11.9296C29.2588 11.7179 29.2 11.4901 29.0448 11.3345L26.5846 8.8663C26.1827 8.46304 26.4674 7.77353 27.0358 7.77353H30.0755C30.3194 7.77353 30.5394 7.62641 30.6332 7.40054L31.7956 4.60162Z" fill="url(#paint1_linear_2_4399)"/>
<g id="Group 44">
<rect id="Rectangle 9_3" x="22.3965" y="0.203125" width="20" height="20" rx="5" fill="#F7CAFF"/>
<path id="Vector_3" fill-rule="evenodd" clip-rule="evenodd" d="M31.7956 4.60162C32.0163 4.07029 32.7666 4.07029 32.9873 4.60162L34.1497 7.40054C34.2435 7.62641 34.4635 7.77353 34.7074 7.77353H37.7643C38.3264 7.77353 38.6079 8.45531 38.2104 8.85405L35.738 11.3345C35.5829 11.4901 35.5241 11.7179 35.5843 11.9296L36.5648 15.3724C36.7303 15.9537 36.0842 16.4269 35.5828 16.0915L32.7266 14.1812C32.5236 14.0455 32.2592 14.0454 32.0563 14.1812L29.2048 16.0884C28.7018 16.4248 28.0535 15.9501 28.2196 15.3669L29.1986 11.9296C29.2588 11.7179 29.2 11.4901 29.0448 11.3345L26.5846 8.8663C26.1827 8.46304 26.4674 7.77353 27.0358 7.77353H30.0755C30.3194 7.77353 30.5394 7.62641 30.6332 7.40054L31.7956 4.60162Z" fill="url(#paint2_linear_2_4399)"/>
</g>
</g>
<g id="Group 69">
<rect id="Rectangle 9_4" x="44.3965" y="0.203125" width="20" height="20" rx="5" fill="#F2F2F2"/>
<path id="Vector_4" fill-rule="evenodd" clip-rule="evenodd" d="M53.7956 4.60162C54.0163 4.07029 54.7666 4.07029 54.9873 4.60162L56.1497 7.40054C56.2435 7.62641 56.4635 7.77353 56.7074 7.77353H59.7643C60.3264 7.77353 60.6079 8.45531 60.2104 8.85405L57.738 11.3345C57.5829 11.4901 57.5241 11.7179 57.5843 11.9296L58.5648 15.3724C58.7303 15.9537 58.0842 16.4269 57.5828 16.0915L54.7266 14.1812C54.5236 14.0455 54.2592 14.0454 54.0563 14.1812L51.2048 16.0884C50.7018 16.4248 50.0535 15.9501 50.2196 15.3669L51.1986 11.9296C51.2588 11.7179 51.2 11.4901 51.0448 11.3345L48.5846 8.8663C48.1827 8.46304 48.4674 7.77353 49.0358 7.77353H52.0755C52.3194 7.77353 52.5394 7.62641 52.6332 7.40054L53.7956 4.60162Z" fill="#DCDCDC"/>
<g id="Group 44_2">
<rect id="Rectangle 9_5" x="44.3965" y="0.203125" width="20" height="20" rx="5" fill="#F7CAFF"/>
<path id="Vector_5" fill-rule="evenodd" clip-rule="evenodd" d="M53.7956 4.60162C54.0163 4.07029 54.7666 4.07029 54.9873 4.60162L56.1497 7.40054C56.2435 7.62641 56.4635 7.77353 56.7074 7.77353H59.7643C60.3264 7.77353 60.6079 8.45531 60.2104 8.85405L57.738 11.3345C57.5829 11.4901 57.5241 11.7179 57.5843 11.9296L58.5648 15.3724C58.7303 15.9537 58.0842 16.4269 57.5828 16.0915L54.7266 14.1812C54.5236 14.0455 54.2592 14.0454 54.0563 14.1812L51.2048 16.0884C50.7018 16.4248 50.0535 15.9501 50.2196 15.3669L51.1986 11.9296C51.2588 11.7179 51.2 11.4901 51.0448 11.3345L48.5846 8.8663C48.1827 8.46304 48.4674 7.77353 49.0358 7.77353H52.0755C52.3194 7.77353 52.5394 7.62641 52.6332 7.40054L53.7956 4.60162Z" fill="url(#paint3_linear_2_4399)"/>
</g>
</g>
<g id="Group 70">
<rect id="Rectangle 9_6" x="66.3965" y="0.203125" width="20" height="20" rx="5" fill="#F2F2F2"/>
<path id="Vector_6" fill-rule="evenodd" clip-rule="evenodd" d="M75.7956 4.60162C76.0163 4.07029 76.7666 4.07029 76.9873 4.60162L78.1497 7.40054C78.2435 7.62641 78.4635 7.77353 78.7074 7.77353H81.7643C82.3264 7.77353 82.6079 8.45531 82.2104 8.85405L79.738 11.3345C79.5829 11.4901 79.5241 11.7179 79.5843 11.9296L80.5648 15.3724C80.7303 15.9537 80.0842 16.4269 79.5828 16.0915L76.7266 14.1812C76.5236 14.0455 76.2592 14.0454 76.0563 14.1812L73.2048 16.0884C72.7018 16.4248 72.0535 15.9501 72.2196 15.3669L73.1986 11.9296C73.2588 11.7179 73.2 11.4901 73.0448 11.3345L70.5846 8.8663C70.1827 8.46304 70.4674 7.77353 71.0358 7.77353H74.0755C74.3194 7.77353 74.5394 7.62641 74.6332 7.40054L75.7956 4.60162Z" fill="#DCDCDC"/>
<g id="Group 44_3">
<rect id="Rectangle 9_7" x="66.3965" y="0.203125" width="20" height="20" rx="5" fill="#F7CAFF"/>
<path id="Vector_7" fill-rule="evenodd" clip-rule="evenodd" d="M75.7956 4.60162C76.0163 4.07029 76.7666 4.07029 76.9873 4.60162L78.1497 7.40054C78.2435 7.62641 78.4635 7.77353 78.7074 7.77353H81.7643C82.3264 7.77353 82.6079 8.45531 82.2104 8.85405L79.738 11.3345C79.5829 11.4901 79.5241 11.7179 79.5843 11.9296L80.5648 15.3724C80.7303 15.9537 80.0842 16.4269 79.5828 16.0915L76.7266 14.1812C76.5236 14.0455 76.2592 14.0454 76.0563 14.1812L73.2048 16.0884C72.7018 16.4248 72.0535 15.9501 72.2196 15.3669L73.1986 11.9296C73.2588 11.7179 73.2 11.4901 73.0448 11.3345L70.5846 8.8663C70.1827 8.46304 70.4674 7.77353 71.0358 7.77353H74.0755C74.3194 7.77353 74.5394 7.62641 74.6332 7.40054L75.7956 4.60162Z" fill="url(#paint4_linear_2_4399)"/>
</g>
</g>
<g id="Group 71">
<rect id="Rectangle 9_8" x="88.3965" y="0.203125" width="20" height="20" rx="5" fill="#F2F2F2"/>
<path id="Vector_8" fill-rule="evenodd" clip-rule="evenodd" d="M97.7956 4.60162C98.0163 4.07029 98.7666 4.07029 98.9873 4.60162L100.15 7.40054C100.243 7.62641 100.463 7.77353 100.707 7.77353H103.764C104.326 7.77353 104.608 8.45531 104.21 8.85405L101.738 11.3345C101.583 11.4901 101.524 11.7179 101.584 11.9296L102.565 15.3724C102.73 15.9537 102.084 16.4269 101.583 16.0915L98.7266 14.1812C98.5236 14.0455 98.2592 14.0454 98.0563 14.1812L95.2048 16.0884C94.7018 16.4248 94.0535 15.9501 94.2196 15.3669L95.1986 11.9296C95.2588 11.7179 95.2 11.4901 95.0448 11.3345L92.5846 8.8663C92.1827 8.46304 92.4674 7.77353 93.0358 7.77353H96.0755C96.3194 7.77353 96.5394 7.62641 96.6332 7.40054L97.7956 4.60162Z" fill="#DCDCDC"/>
</g>
</g>
<defs>
<linearGradient id="paint0_linear_2_4399" x1="4.39648" y1="4.20312" x2="16.3965" y2="16.2031" gradientUnits="userSpaceOnUse">
<stop stop-color="#7B1FA2"/>
<stop offset="0.505208" stop-color="#9C27B0"/>
<stop offset="1" stop-color="#562A5E"/>
</linearGradient>
<linearGradient id="paint1_linear_2_4399" x1="26.3965" y1="4.20312" x2="38.3965" y2="16.2031" gradientUnits="userSpaceOnUse">
<stop stop-color="#FF7A00"/>
<stop offset="0.505208" stop-color="#FF9900"/>
<stop offset="1" stop-color="#DB8300"/>
</linearGradient>
<linearGradient id="paint2_linear_2_4399" x1="26.3965" y1="4.20312" x2="38.3965" y2="16.2031" gradientUnits="userSpaceOnUse">
<stop stop-color="#7B1FA2"/>
<stop offset="0.505208" stop-color="#9C27B0"/>
<stop offset="1" stop-color="#562A5E"/>
</linearGradient>
<linearGradient id="paint3_linear_2_4399" x1="48.3965" y1="4.20312" x2="60.3965" y2="16.2031" gradientUnits="userSpaceOnUse">
<stop stop-color="#7B1FA2"/>
<stop offset="0.505208" stop-color="#9C27B0"/>
<stop offset="1" stop-color="#562A5E"/>
</linearGradient>
<linearGradient id="paint4_linear_2_4399" x1="70.3965" y1="4.20312" x2="82.3965" y2="16.2031" gradientUnits="userSpaceOnUse">
<stop stop-color="#7B1FA2"/>
<stop offset="0.505208" stop-color="#9C27B0"/>
<stop offset="1" stop-color="#562A5E"/>
</linearGradient>
</defs>
</svg>
